<svg xmlns="http://www.w3.org/2000/svg" xmlns:xlink="http://www.w3.org/1999/xlink" xml:space="preserve" version="1.1" style="shape-rendering:geometricPrecision;text-rendering:geometricPrecision;image-rendering:optimizeQuality;" viewBox="0 0 333 416.25" x="0px" y="0px" fill-rule="evenodd" clip-rule="evenodd"><defs><style type="text/css">
   
    .fil0 {fill:black}
   
  </style></defs><g><path class="fil0" d="M167 8c84,0 152,68 152,152 0,84 -68,152 -152,152 -14,0 -28,-2 -41,-5 -28,15 -61,23 -110,14 30,-10 39,-26 44,-53 -28,-27 -45,-65 -45,-108 0,-84 68,-152 152,-152zm-82 126c14,0 25,11 25,25 0,13 -11,24 -25,24 -13,0 -24,-11 -24,-24 0,-14 11,-25 24,-25zm163 0c13,0 24,11 24,25 0,13 -11,24 -24,24 -13,0 -24,-11 -24,-24 0,-14 11,-25 24,-25zm-81 0c13,0 24,11 24,25 0,13 -11,24 -24,24 -14,0 -25,-11 -25,-24 0,-14 11,-25 25,-25z"/></g></svg>