<svg height='100px' width='100px'  fill="#000000" xmlns="http://www.w3.org/2000/svg" xmlns:xlink="http://www.w3.org/1999/xlink" version="1.1" x="0px" y="0px" viewBox="0 0 128 128" style="enable-background:new 0 0 128 128;" xml:space="preserve"><g><path d="M69.286438,65.8031616c-0.3764648-1.6671753-1.8571167-2.8091431-3.5099487-2.8091431   c-0.2133789,0-0.4298096,0.019043-0.6468506,0.0584717l-0.5736694,0.104126l-6.3533325,1.1531372   c-0.2266846,0.0411377-0.4547119,0.0613403-0.6815796,0.0613403c-0.8508911,0-1.6848755-0.284729-2.3632202-0.8197021   l-12.0625-9.5122681c-1.6832275-1.3273315-3.7644043-2.0491943-5.9080811-2.0491943h-5.3607178   c-3.8583984,0-7.3370361,2.3239136-8.81427,5.8883667L8.6287842,92.5854492   c-0.7311401,1.7642212,0.0131226,3.7943115,1.7113037,4.6678467c0.5361938,0.2758789,1.1098022,0.4070435,1.6758423,0.4070435   c1.2703247,0,2.5015869-0.661438,3.1791382-1.8329468l6.2966309-10.8872681l1.2119141-8.9088745   c0.0737305-0.5473633,0.574707-0.9335938,1.1254883-0.855957c0.5473633,0.0742188,0.9306641,0.578125,0.855957,1.1254883   l-3.1196289,22.9326172C21.680603,100.220459,22.5153198,101,23.5469971,101l20.8722534-0.000061   c1.2567749-0.000061,2.1964111-1.1507568,1.9603882-2.3851929c-2.3671265-12.3773193-1.4251709-19.0493774-1.4251709-19.0493774   c1.8737793-3.0111084,2.6769409-5.7701416,3.0227051-7.5881958l-7.1890869-4.6480713   c-0.4638672-0.2998047-0.5966797-0.9189453-0.296875-1.3828125c0.300293-0.4633789,0.9189453-0.5957031,1.3828125-0.296875   l6.5942383,4.2634888l2.4128418,1.4970703c1.5258179,0.9467163,3.2704468,1.4338379,5.0307617,1.4338379   c0.901001,0,1.8062134-0.1276855,2.6880493-0.3866577l6.5628662-1.9273071l1.625061-0.4772339   C68.6113281,69.5170898,69.7050171,67.6569824,69.286438,65.8031616z"></path><path d="M17.7248535,58.1431885c0.9326172,0.9616699,2.4862061,0.7473755,3.1745605-0.390564   c0.0094604-0.015625,0.022522-0.0270386,0.0316162-0.0429688c1.8839111-3.2995605,4.1549072-5.8251953,6.7767944-6.5784912   c0.5993652-0.1721802,1.0223999-0.4758911,1.3300171-0.7964478c0.5767822-0.6009521,0.7272339-1.265686,0.7272339-1.265686   v-0.0198364c1.2302246,0.5769043,2.59375,0.9122314,4.0355225,0.9407349h0.3988037   c1.0344238-0.0204468,2.0290527-0.1970825,2.963562-0.5087891c0.1246338,0.1520386,0.3157959,0.333374,0.6062012,0.5335083   c0.5283813,0.3640747,1.383606,0.7868042,2.7827759,1.1968994c1.7230835,0.5050659,3.3175049,1.6960449,4.2280273,2.3775024   c0.4501343,0.336853,0.9553223,0.4257202,1.4316406,0.3604736c1.0119629-0.1386108,1.8812866-1.0420532,1.7288208-2.2268066   c-0.0483398-0.3754883-0.1430664-0.7930298-0.2963867-1.257019c-0.0645142-0.1953125-0.069458-0.4077759-0.0140381-0.605896   c0.213562-0.7634888,0.5371704-2.9098511-1.7501831-4.8677979c-0.2311401-0.197876-0.3773193-0.4807129-0.3668823-0.7848511   c0.0565796-1.6525879-0.0836182-7.2988892-4.2110596-11.024231C39.4766846,31.2288208,36.8848877,30,34,30   c-0.9845581,0-1.9335938,0.1480713-2.8322754,0.413208l0.0012817-0.0065918   c-4.6228027,1.1324463-10.1131592,4.4314575-10.4231567,9.4503174c-0.0183105,0.2971191-0.1654053,0.5667114-0.401001,0.7487183   c-2.1304321,1.645813-2.1818848,3.8743286-2.0911255,4.8197632c0.0293579,0.3057861-0.1040649,0.5979614-0.3196411,0.8168335   c-2.1647949,2.1984863-1.1467285,4.4414673-0.5159302,5.4107666c0.2110596,0.3243408,0.2047119,0.7296753,0.0090332,1.0635376   C15.923645,55.2817993,16.6539917,57.0390625,17.7248535,58.1431885z M34,48c-1.3781128,0-2.6759033-0.3502808-3.8091431-0.9664917   c1.2332153-0.5709839,2.0936279-1.8113403,2.0936279-3.2597046c0-1.0091553-0.4177856-1.9185181-1.086853-2.5720825   c3.293457-1.4273682,4.4789429-3.8081665,4.848877-5.8058472c0.9602661,0.3305054,2.5516357,0.6947632,4.9894409,0.8000488   C41.6504517,37.3279419,42,38.6239014,42,40C42,44.4111938,38.4111938,48,34,48z"></path><path d="M86.1139526,41.7160645c0.2732544,0,0.5327759-0.0117798,0.7940674-0.0220947   c-2.8790894,1.1738892-2.3718262,3.1732178-2.3718262,3.1732178c0.6798096,2.1345825,3.4084473,1.5800171,3.4084473,1.5800171   c0.7266235-0.1434326,1.3841553-0.3255005,2.0119019-0.5234985C91.7775269,48.3919678,94.6973877,50,98,50   c1.6044312,0,3.1152344-0.387207,4.4590454-1.0587769c2.0999756,1.8114624,5.1807861,1.6040649,5.1807861,1.6040649   s2.6585083,0.0292358,3.4180908-1.8989258s-1.694397-3.2721558-1.694397-3.2721558s2.4539795-1.8695679,2.4539795-2.8336792   c0-0.9640503-0.8179932-2.1034546-2.366333-2.1034546c-1.5484009,0-1.486145-1.4606934-1.486145-1.4606934   s-0.0142212,0.0090942-0.0161743,0.0102539c-0.0390015-0.3878784-0.1055908-0.7670898-0.1876831-1.140564   c3.6057739-0.1046753,3.4304199-2.1937256,3.4304199-2.1937256s0.1226807-2.4840088-3.6187134-3.1893311   c-2.9636841-0.5587769-4.8411865-1.310791-5.4936523-1.5992432c-0.0189819-0.0084229-0.0231323-0.0015259-0.0391235-0.0068359   C100.803772,30.3097534,99.4390259,30,98,30c-3.99646,0-7.4354248,2.3500977-9.036499,5.7387085   c-0.803833,0.4749756-1.7788086,0.8872681-2.9379883,1.1114502c-3.06073,0.5919189-2.9495239,2.6557617-2.9495239,2.6557617   C83.3031616,41.5557861,86.1139526,41.7160645,86.1139526,41.7160645z M90.1106567,41.2693481   c4.4799805-1.0901489,6.5441895-3.9871826,7.4939575-6.46875c0.6193848,2.6593018,2.335022,7.7744141,6.5824585,10.2635498   C102.71875,46.8547974,100.4909668,48,98,48C94.0217896,48,90.7219849,45.0779419,90.1106567,41.2693481z"></path><path d="M113.5131226,63.09198l-0.0496216,0.0587769l0.0241699-0.3855591   c0.3687744-5.7623291-4.2054443-10.6386719-9.9796143-10.6386719h-7.8214722c-2.3848877,0-4.6913452,0.852356-6.5031128,2.4033203   L76.9113159,65.0354004c-0.5239868,0.4486084-1.2421875,0.59552-1.9002686,0.3886719l-4.2462158-1.3345947   c0.1992798,0.4001465,0.3699341,0.8190918,0.4724731,1.2731934c0.6171875,2.7332764-0.9082642,5.4698486-3.4885864,6.4490967   l5.6229858,2.0757446c2.9585571,1.0921631,6.2589722,0.7246704,8.9049072-0.9915161l3.0142212-1.9551392   c-0.2075195-3.0773926,0.4691162-5.477478,0.5172729-5.6415405c0.15625-0.5292969,0.7104492-0.8305664,1.2402344-0.6767578   c0.5292969,0.1547852,0.8330078,0.7099609,0.6791992,1.2397461c-0.0170898,0.0585938-1.6743164,5.9316406,1.3359375,10.6635742   c0.1689453,0.265564,0.1830444,0.5755005,0.0895386,0.8522339c0.0008545,0.133667-0.0363159,0.2683105-0.1166382,0.3858643   c-1.1810303,1.7279663-5.2215576,8.8444214-2.1258545,21.6764526c0.2191162,0.9082642,1.0179443,1.5594482,1.9522705,1.5594482   l20.3500977,0.000061c0.414917,0,0.7991943-0.1300659,1.1199951-0.3479004   c-2.0672607-0.2928467-3.7366943-1.9295654-3.9989014-4.0534058l-2.8032227-22.7299805   c-0.0673828-0.5483398,0.3222656-1.0473633,0.8701172-1.1152344c0.2874146-0.0319824,0.5568237,0.0626221,0.7622681,0.2344971   c0.1864624,0.1560059,0.3209229,0.374939,0.3529663,0.6356201l2.8032227,22.7299805   c0.1655273,1.3452148,1.3129883,2.359375,2.6679688,2.359375c0.0845947,0,0.1658325-0.0167236,0.2490234-0.0244141   c0.6255493-0.0576172,1.2081299-0.3167725,1.6567383-0.7675781c0.5078125-0.5107422,0.7856445-1.1889648,0.7822266-1.909668   L113.5131226,63.09198z"></path><path d="M68,58c1.1044922,0,2-0.8955078,2-2v-7c0-1.1044922-0.8955078-2-2-2s-2,0.8955078-2,2v7C66,57.1044922,66.8955078,58,68,58   z"></path><path d="M68,78.8134766c-1.1044922,0-2,0.8955078-2,2v7c0,1.1044922,0.8955078,2,2,2s2-0.8955078,2-2v-7   C70,79.7089844,69.1044922,78.8134766,68,78.8134766z"></path><path d="M73.5390625,60.5991211c0.5117188,0,1.0239258-0.1953125,1.4140625-0.5859375l5.3349609-5.3349609   c0.78125-0.7807617,0.78125-2.0473633,0-2.828125c-0.7802734-0.78125-2.0478516-0.78125-2.828125,0L72.125,57.1850586   c-0.78125,0.7807617-0.78125,2.0473633,0,2.828125C72.5151367,60.4038086,73.0273438,60.5991211,73.5390625,60.5991211z"></path><path d="M60.9697266,60.0131836c0.3901367,0.390625,0.9023438,0.5859375,1.4140625,0.5859375   s1.0239258-0.1953125,1.4140625-0.5859375c0.78125-0.7807617,0.78125-2.0473633,0-2.828125l-5.3349609-5.3349609   c-0.7802734-0.78125-2.0478516-0.78125-2.828125,0c-0.78125,0.7807617-0.78125,2.0473633,0,2.828125L60.9697266,60.0131836z"></path><path d="M60.9697266,76.7885742l-5.3349609,5.3349609c-0.78125,0.7807617-0.78125,2.0473633,0,2.828125   c0.3901367,0.390625,0.9023438,0.5859375,1.4140625,0.5859375s1.0239258-0.1953125,1.4140625-0.5859375l5.3349609-5.3349609   c0.78125-0.7807617,0.78125-2.0473633,0-2.828125C63.0175781,76.0073242,61.75,76.0073242,60.9697266,76.7885742z"></path><path d="M74.953125,76.7885742c-0.7802734-0.78125-2.0478516-0.78125-2.828125,0c-0.78125,0.7807617-0.78125,2.0473633,0,2.828125   l5.3349609,5.3349609c0.3901367,0.390625,0.9023438,0.5859375,1.4140625,0.5859375s1.0239258-0.1953125,1.4140625-0.5859375   c0.78125-0.7807617,0.78125-2.0473633,0-2.828125L74.953125,76.7885742z"></path></g></svg>